<mxfile host="app.diagrams.net" modified="2022-09-19T16:37:20.377Z" agent="5.0 (Windows NT 10.0; Win64; x64) AppleWebKit/537.36 (KHTML, like Gecko) Chrome/105.0.0.0 Safari/537.36" etag="J8dz-2eGwcObkPfNUTdU" version="20.3.0" type="github">
  <diagram name="Page-1" id="b98fa263-6416-c6ec-5b7d-78bf54ef71d0">
    <mxGraphModel dx="2015" dy="1185" grid="1" gridSize="10" guides="1" tooltips="1" connect="1" arrows="1" fold="1" page="1" pageScale="1.5" pageWidth="1169" pageHeight="826" background="none" math="0" shadow="0">
      <root>
        <mxCell id="0" style=";html=1;" />
        <mxCell id="1" style=";html=1;" parent="0" />
        <mxCell id="QJPwQkRD8cZECu2AoGgC-1" style="edgeStyle=orthogonalEdgeStyle;rounded=0;orthogonalLoop=1;jettySize=auto;html=1;exitX=0.5;exitY=1;exitDx=0;exitDy=0;entryX=0.5;entryY=0;entryDx=0;entryDy=0;" edge="1" parent="1" source="303ed1de8c2c98b4-4" target="303ed1de8c2c98b4-7">
          <mxGeometry relative="1" as="geometry" />
        </mxCell>
        <mxCell id="QJPwQkRD8cZECu2AoGgC-2" style="edgeStyle=orthogonalEdgeStyle;rounded=0;orthogonalLoop=1;jettySize=auto;html=1;exitX=0.5;exitY=1;exitDx=0;exitDy=0;entryX=0.5;entryY=0;entryDx=0;entryDy=0;" edge="1" parent="1" source="303ed1de8c2c98b4-4" target="303ed1de8c2c98b4-5">
          <mxGeometry relative="1" as="geometry" />
        </mxCell>
        <mxCell id="303ed1de8c2c98b4-4" value="Директор" style="whiteSpace=wrap;html=1;rounded=1;shadow=1;strokeWidth=1;fontSize=16;align=center;fillColor=#f5f5f5;strokeColor=#666666;" parent="1" vertex="1">
          <mxGeometry x="170" y="300" width="510" height="40" as="geometry" />
        </mxCell>
        <mxCell id="QJPwQkRD8cZECu2AoGgC-4" style="edgeStyle=orthogonalEdgeStyle;rounded=0;orthogonalLoop=1;jettySize=auto;html=1;exitX=0.5;exitY=1;exitDx=0;exitDy=0;entryX=0.5;entryY=0;entryDx=0;entryDy=0;" edge="1" parent="1" source="303ed1de8c2c98b4-5" target="303ed1de8c2c98b4-12">
          <mxGeometry relative="1" as="geometry" />
        </mxCell>
        <mxCell id="303ed1de8c2c98b4-5" value="Сортировочные центры" style="whiteSpace=wrap;html=1;rounded=1;shadow=1;strokeWidth=1;fontSize=16;align=center;fillColor=#f5f5f5;strokeColor=#666666;" parent="1" vertex="1">
          <mxGeometry x="440" y="415" width="275" height="40" as="geometry" />
        </mxCell>
        <mxCell id="303ed1de8c2c98b4-7" value="Штаб-квартира" style="whiteSpace=wrap;html=1;rounded=1;shadow=1;strokeWidth=1;fontSize=16;align=center;fillColor=#f5f5f5;strokeColor=#666666;" parent="1" vertex="1">
          <mxGeometry x="118" y="415" width="275" height="40" as="geometry" />
        </mxCell>
        <mxCell id="303ed1de8c2c98b4-10" value="Работники склада" style="whiteSpace=wrap;html=1;rounded=1;shadow=1;strokeWidth=1;fontSize=16;align=center;fillColor=#f5f5f5;strokeColor=#666666;" parent="1" vertex="1">
          <mxGeometry x="420" y="595" width="125" height="80" as="geometry" />
        </mxCell>
        <mxCell id="QJPwQkRD8cZECu2AoGgC-5" style="edgeStyle=orthogonalEdgeStyle;rounded=0;orthogonalLoop=1;jettySize=auto;html=1;exitX=0.5;exitY=1;exitDx=0;exitDy=0;entryX=0.5;entryY=0;entryDx=0;entryDy=0;" edge="1" parent="1" source="303ed1de8c2c98b4-12" target="303ed1de8c2c98b4-10">
          <mxGeometry relative="1" as="geometry">
            <Array as="points">
              <mxPoint x="578" y="580" />
              <mxPoint x="483" y="580" />
            </Array>
          </mxGeometry>
        </mxCell>
        <mxCell id="QJPwQkRD8cZECu2AoGgC-6" style="edgeStyle=orthogonalEdgeStyle;rounded=0;orthogonalLoop=1;jettySize=auto;html=1;exitX=0.5;exitY=1;exitDx=0;exitDy=0;entryX=0.5;entryY=0;entryDx=0;entryDy=0;" edge="1" parent="1" source="303ed1de8c2c98b4-12" target="303ed1de8c2c98b4-21">
          <mxGeometry relative="1" as="geometry">
            <Array as="points">
              <mxPoint x="578" y="580" />
              <mxPoint x="643" y="580" />
            </Array>
          </mxGeometry>
        </mxCell>
        <mxCell id="303ed1de8c2c98b4-12" value="Администратор сорт. центра" style="whiteSpace=wrap;html=1;rounded=1;shadow=1;strokeWidth=1;fontSize=16;align=center;fillColor=#f5f5f5;strokeColor=#666666;" parent="1" vertex="1">
          <mxGeometry x="515" y="485" width="125" height="80" as="geometry" />
        </mxCell>
        <mxCell id="303ed1de8c2c98b4-15" value="HR" style="whiteSpace=wrap;html=1;rounded=1;shadow=1;strokeWidth=1;fontSize=16;align=center;fillColor=#f5f5f5;strokeColor=#666666;" parent="1" vertex="1">
          <mxGeometry x="118" y="485" width="125" height="80" as="geometry" />
        </mxCell>
        <mxCell id="303ed1de8c2c98b4-16" value="IT-отдел" style="whiteSpace=wrap;html=1;rounded=1;shadow=1;strokeWidth=1;fontSize=16;align=center;fillColor=#f5f5f5;strokeColor=#666666;" parent="1" vertex="1">
          <mxGeometry x="268" y="485" width="125" height="80" as="geometry" />
        </mxCell>
        <mxCell id="QJPwQkRD8cZECu2AoGgC-7" style="edgeStyle=orthogonalEdgeStyle;rounded=0;orthogonalLoop=1;jettySize=auto;html=1;exitX=0.5;exitY=1;exitDx=0;exitDy=0;entryX=0.5;entryY=0;entryDx=0;entryDy=0;" edge="1" parent="1" source="303ed1de8c2c98b4-21" target="303ed1de8c2c98b4-31">
          <mxGeometry relative="1" as="geometry" />
        </mxCell>
        <mxCell id="QJPwQkRD8cZECu2AoGgC-8" style="edgeStyle=orthogonalEdgeStyle;rounded=0;orthogonalLoop=1;jettySize=auto;html=1;exitX=0.5;exitY=1;exitDx=0;exitDy=0;" edge="1" parent="1" source="303ed1de8c2c98b4-21" target="303ed1de8c2c98b4-41">
          <mxGeometry relative="1" as="geometry">
            <Array as="points">
              <mxPoint x="643" y="690" />
              <mxPoint x="483" y="690" />
            </Array>
          </mxGeometry>
        </mxCell>
        <mxCell id="303ed1de8c2c98b4-21" value="Центр выдачи посылок" style="whiteSpace=wrap;html=1;rounded=1;shadow=1;strokeWidth=1;fontSize=16;align=center;fillColor=#f5f5f5;strokeColor=#666666;" parent="1" vertex="1">
          <mxGeometry x="580" y="600" width="125" height="40" as="geometry" />
        </mxCell>
        <mxCell id="303ed1de8c2c98b4-31" value="Работник ЦВП" style="whiteSpace=wrap;html=1;rounded=1;shadow=1;strokeWidth=1;fontSize=16;align=center;fillColor=#f5f5f5;strokeColor=#666666;" parent="1" vertex="1">
          <mxGeometry x="580" y="710" width="125" height="80" as="geometry" />
        </mxCell>
        <mxCell id="303ed1de8c2c98b4-41" value="Курьеры" style="whiteSpace=wrap;html=1;rounded=1;shadow=1;strokeWidth=1;fontSize=16;align=center;fillColor=#f5f5f5;strokeColor=#666666;" parent="1" vertex="1">
          <mxGeometry x="420" y="710" width="125" height="80" as="geometry" />
        </mxCell>
        <mxCell id="303ed1de8c2c98b4-69" value="PR" style="whiteSpace=wrap;html=1;rounded=1;shadow=1;strokeWidth=1;fontSize=16;align=center;fillColor=#f5f5f5;strokeColor=#666666;" parent="1" vertex="1">
          <mxGeometry x="119" y="595" width="125" height="80" as="geometry" />
        </mxCell>
        <mxCell id="303ed1de8c2c98b4-70" value="QA" style="whiteSpace=wrap;html=1;rounded=1;shadow=1;strokeWidth=1;fontSize=16;align=center;fillColor=#f5f5f5;strokeColor=#666666;" parent="1" vertex="1">
          <mxGeometry x="269" y="595" width="125" height="80" as="geometry" />
        </mxCell>
        <mxCell id="303ed1de8c2c98b4-99" style="edgeStyle=orthogonalEdgeStyle;html=1;startSize=6;endFill=0;endSize=6;strokeWidth=1;fontSize=16;rounded=0;endArrow=none;entryX=1;entryY=0.5;" parent="1" source="303ed1de8c2c98b4-7" target="303ed1de8c2c98b4-15" edge="1">
          <mxGeometry relative="1" as="geometry">
            <Array as="points">
              <mxPoint x="255" y="525" />
            </Array>
          </mxGeometry>
        </mxCell>
        <mxCell id="303ed1de8c2c98b4-100" style="edgeStyle=orthogonalEdgeStyle;html=1;startSize=6;endFill=0;endSize=6;strokeWidth=1;fontSize=16;rounded=0;endArrow=none;entryX=1;entryY=0.5;" parent="1" source="303ed1de8c2c98b4-7" target="303ed1de8c2c98b4-69" edge="1">
          <mxGeometry relative="1" as="geometry">
            <Array as="points">
              <mxPoint x="255" y="635" />
            </Array>
          </mxGeometry>
        </mxCell>
        <mxCell id="303ed1de8c2c98b4-101" style="edgeStyle=orthogonalEdgeStyle;html=1;startSize=6;endFill=0;endSize=6;strokeWidth=1;fontSize=16;rounded=0;endArrow=none;entryX=0;entryY=0.5;" parent="1" source="303ed1de8c2c98b4-7" target="303ed1de8c2c98b4-16" edge="1">
          <mxGeometry relative="1" as="geometry">
            <Array as="points">
              <mxPoint x="255" y="525" />
            </Array>
          </mxGeometry>
        </mxCell>
        <mxCell id="303ed1de8c2c98b4-102" style="edgeStyle=orthogonalEdgeStyle;html=1;startSize=6;endFill=0;endSize=6;strokeWidth=1;fontSize=16;rounded=0;endArrow=none;entryX=0;entryY=0.5;" parent="1" source="303ed1de8c2c98b4-7" target="303ed1de8c2c98b4-70" edge="1">
          <mxGeometry relative="1" as="geometry">
            <Array as="points">
              <mxPoint x="255" y="635" />
            </Array>
          </mxGeometry>
        </mxCell>
      </root>
    </mxGraphModel>
  </diagram>
</mxfile>
